<?xml version="1.0" encoding="utf-8"?>
<!-- Uploaded to: SVG Repo, www.svgrepo.com, Generator: SVG Repo Mixer Tools -->
<svg width="800px" height="800px" viewBox="0 0 1024 1024" class="icon"  version="1.1" xmlns="http://www.w3.org/2000/svg"><path d="M710.3 1002.7H360.2L266 241.2h538.4z" fill="#FFFFFF" /><path d="M710.3 1013.7H360.2c-5.6 0-10.2-4.1-10.9-9.7l-94.1-761.5c-0.4-3.1 0.6-6.3 2.7-8.6 2.1-2.4 5.1-3.7 8.2-3.7h538.4c3.2 0 6.2 1.4 8.2 3.7 2.1 2.4 3.1 5.5 2.7 8.6L721.3 1004c-0.8 5.6-5.5 9.7-11 9.7z m-340.4-22h330.6L792 252.2H278.5l91.4 739.5z" fill="#E01042" /><path d="M296.6 488.5l63.6 514.2h350.1l63.5-514.2z" fill="#F27596" /><path d="M710.3 1013.7H360.2c-5.6 0-10.2-4.1-10.9-9.7l-63.6-514.2c-0.4-3.1 0.6-6.3 2.7-8.6 2.1-2.4 5.1-3.7 8.2-3.7h477.2c3.2 0 6.2 1.4 8.2 3.7 2.1 2.4 3.1 5.5 2.7 8.6L721.1 1004c-0.6 5.6-5.3 9.7-10.8 9.7z m-340.4-22h330.6l60.8-492.2H309.1l60.8 492.2z" fill="#E01042" /><path d="M422.6 816m-28.8 0a28.8 28.8 0 1 0 57.6 0 28.8 28.8 0 1 0-57.6 0Z" fill="#E01042" /><path d="M622 870.8m-28.8 0a28.8 28.8 0 1 0 57.6 0 28.8 28.8 0 1 0-57.6 0Z" fill="#E01042" /><path d="M468.4 640.3m-28.8 0a28.8 28.8 0 1 0 57.6 0 28.8 28.8 0 1 0-57.6 0Z" fill="#E01042" /><path d="M439.6 1013.7c-1 0-2-0.1-3-0.4-5.9-1.6-9.3-7.7-7.6-13.5L682 91.4c0.9-3.3 3.4-6.1 6.6-7.3L871 13.4c5.7-2.2 12 0.6 14.2 6.3 2.2 5.7-0.6 12-6.3 14.2l-177.2 68.6-251.5 903.1c-1.3 5-5.8 8.1-10.6 8.1z" fill="#17217F" /><path d="M266 241.2h154.6c2-10.4 3.1-21.2 3.1-32.2 0-95.9-77.7-173.6-173.6-173.6-95.9 0-173.6 77.7-173.6 173.6 0 95.9 77.7 173.6 173.6 173.6 11.3 0 22.3-1.2 32.9-3.2l-17-138.2z" fill="#FFD400" /><path d="M250.2 393.6c-101.8 0-184.6-82.8-184.6-184.6S148.4 24.5 250.2 24.5 434.8 107.3 434.8 209c0 11.1-1.1 22.6-3.3 34.2-1 5.2-5.5 9-10.8 9H278.5L294 378c0.7 5.7-3.2 11.1-8.8 12.2-11.8 2.3-23.6 3.4-35 3.4z m0-347.1c-89.6 0-162.6 72.9-162.6 162.6s72.9 162.6 162.6 162.6c6.8 0 13.7-0.5 20.7-1.4l-15.8-127.7c-0.4-3.1 0.6-6.3 2.7-8.6 2.1-2.4 5.1-3.7 8.2-3.7h145.2c1-7.2 1.5-14.3 1.5-21.2 0.1-89.7-72.9-162.6-162.5-162.6z" fill="#C13105" /><path d="M321.9 378.9c-4.2 0-8.1-2.4-10-6.4-2.6-5.5-0.2-12.1 5.4-14.6 38-17.6 67.5-48.8 82.9-87.7 2.2-5.6 8.6-8.4 14.3-6.2 5.6 2.2 8.4 8.6 6.2 14.3-17.5 44.2-50.9 79.5-94.1 99.5-1.6 0.7-3.1 1.1-4.7 1.1z" fill="#C13105" /></svg>